<?xml version="1.0" encoding="UTF-8"?>
<svg id="JPL_Red" xmlns="http://www.w3.org/2000/svg" version="1.1" viewBox="0 0 5206.4 2008.6">
  <!-- Generator: Adobe Illustrator 29.0.1, SVG Export Plug-In . SVG Version: 2.1.0 Build 192)  -->
  <defs>
    <style>
      .st0 {
        fill: #f03;
      }
    </style>
  </defs>
  <path class="st0" d="M1472.1,890.3c11.1-63.8,14.9-124.2,14.9-177.4,0-121.9-20.2-206.2-20.6-207.8-1.6-6.6-7.5-11.2-14.1-11.2s-2,.1-3,.3h0c-79.3,15.8-145.6,22-200.8,22-137.8,0-206-38.6-235.6-63.1-7.3-34.7,6-63.2,33-64.8,0,0,6.8-2,69.4,13.9,68.2,14.6,80.7-47.8,83.3-85.2,0,0-24.8,23.8-98,10.4-73.2-13.4-118,66-117.8,108,0,.7-.1,5,.5,11.8-.1.1-.3.2-.4.4-25.6,23.7-93.3,68.6-242,68.6-55.1,0-121.4-6.2-200.7-22h0s0,0,0,0c-1-.2-2-.3-2.9-.3-6.6,0-12.5,4.6-14.2,11.1h0c0,.3-.4,1.7-1,4.5-4.2,19-20,97.7-20,205.3s3.8,112.5,14.7,175.5c20.1,116.5,60.3,222.6,119.5,315.7-.6,8.1-1.5,16.4-2.8,24.8-2.2,14.2-5.3,28.6-9.9,43.1-3.8,13.9-9.1,36.8-25.3,55.6-16.7,19.3-18.8,22.7-29,52.8,0,0-42.6,40.2-40.6,67,.2.6.5,1.2,1.3,1.5h0c9,3.4,64.4,22.3,127.8-1.3,1.5-.8,1.6-1.6,1.8-2.7.5-8.3,2.9-39.7,10-54.4,8.2-17.1,12.6-24,10.1-35.4-2.5-11.4-3.5-21,2.5-32,2.1-3.8,6.9-8.6,13.4-13.8,3.7-3,7.9-6.2,12.4-9.5,74.4,85.1,168.3,156.1,280.1,211.7h0c2,1,4.2,1.5,6.5,1.5s4.5-.5,6.5-1.5h0c8.4-4.2,16.7-8.5,24.9-12.8,88.2-46.9,164.7-104,228.5-170.4,32.3-33.6,61.3-69.6,87-107.9h0,0c65-96.9,108.8-208.7,130.2-332M1452,507.1h0s.3,0,.3,0c.6,0,1.3.4,1.5,1.3.2.8,20.2,84.3,20.2,204.7s-3.8,112.3-14.7,175.2c-9.8,56.4-24.4,110.2-43.5,161.2,4.2-29.3,6.1-62.2,6.2-87.9.2-41.2-7-79-45.8-121.3,0,0,16.3-46.2,15.5-95.4-4.3-258.1-256.3-155.5-329.2-215.3-20.6-16.9-34.5-36.1-42.6-54.8,37.4,25.2,107.4,54.8,228.7,54.8,56.1,0,123.3-6.3,203.3-22.3M515.5,714.8c0-60.7,5.1-112.2,10.2-148.5,2.6-18.2,5.1-32.6,7.1-42.5,1-5,1.8-8.8,2.4-11.4.6-2.6.9-4.1.9-4.1h0c.2-.8.9-1.3,1.5-1.3h.2s0,0,0,0c80.1,16,147.2,22.3,203.3,22.3,141.2,0,212.9-40.1,244.6-66.6,6.7,34.1,29.9,90.7,109.7,113.8,89,25.7,286.6-4.4,235.7,221.3,0,0-39.1-27.9-86.8-29.5-11.1-.4-23.2,0-36.5,2-27.4,4.1-46.5-4.1-59.8-12.9,13.6,2.1,25.8,3,36.8,3,31.1,0,52.2-7.4,66.9-13.9,1.9-.8,3.8-1.7,5.5-2.6,6-2.9,10.9-5.8,14.7-7.8,6-3.2,10-5.7,12.9-8.1,1.5-1.2,2.7-2.4,3.7-3.8,1-1.4,1.9-3.2,1.9-5.7,0-1.2-.3-2.5-.8-3.5-.5-1.1-1.2-1.9-1.8-2.5-1.8-1.6-3.4-2.2-4.8-2.8-1-.3-1.7-.4-2.4-.5-2.2-.3-5.1-.5-8.4-.6-1.4,0-2.9-.1-4.4-.2-5.2-.2-10-.2-11-.2-8.3-.4-15-1.1-20.6-2.2-8.4-1.6-14.5-4.1-21-7.8-6.4-3.7-13.2-8.9-22.2-15.8-2.5-1.9-5.1-4-8-6.1-1.5-1.1-3-2.3-4.6-3.5-10.4-7.8-23.4-17.1-40.6-28.1-16-10.2-31.5-18.6-46.5-25.4-3.8-1.7-36.8-15.8-50.2-20.5-2.2-.8-4.5-1.6-6.9-2.3-36.5-39.4-80.2-58.2-124.4-51.6-84.8,12.7-196,99.4-242.2,237.6-4.4,17.6-8,45.5,2.6,74.1l17.5,47.3s-23.4-19.4-34.9-39.8c-4.1,5.4-24.7,35.2-23.1,92.7,0,2.9.2,5.6.3,8.4,1.3,29.9,5,48.3,8.1,59,1.2,3.9,2.2,6.8,3.1,8.8-.7,5.3-1.2,10.7-2,15.9-.6,4.1-1.1,8.4-1.6,12.8-2,17.5-3.1,35.3-3.3,38.6v.5c-.1,1.2-.2,2.6-.2,4,0,.4,0,.9,0,1.3,0,1.1,0,2.2,0,3.4v1.3c0,1.5,0,3.1,0,4.8v.3c.4,16.6,2.2,40.1,1.5,67-52.9-87.7-89.2-186.7-107.8-295-10.7-62.2-14.5-121.1-14.5-173.3M1181.1,1170.5c1.1.9.4,2.6-1,2.4-18.3-2.8-34.9-15.6-22.8-40.8,9.5-19.7,12.6-32.2,13.7-37.7.2-1.3,2-1.5,2.6-.3,2.3,4.7,4.8,15.7-2.1,38-6.7,21.5,3.3,33.3,9.6,38.4M1082.2,1022c.5,4.7.8,9.5,1,14.1,0,1.5,0,3.1,0,4.5-.1,8.9-1.5,16.7-5.4,21.3-2,2.3-5,5.1-8.8,7.9-2.5,1.9-5.4,3.9-8.5,5.8-6.1,3.9-13.1,7.8-20,11-3.4,1.6-6.9,3.1-10.2,4.3-3.3,1.2-6.4,2.2-9.3,2.8-4.4,1-8.1,1.3-11,.6-15.1-3.7-15-5.6-22.3-11.9-.8-.4-1.4-.8-2-1.2-4-2.4-4.8-2.3-23.4-2.4-13.8,0-26.3-.3-36.4-3-10-2.6-17.6-7.7-21.6-17.5-3.4-7-5.2-13.1-6.8-18.5-3.4-11.8-5.5-20.1-21.2-25.9-18.7-6.9-40.7-8.8-57.7-27.9h0c-1.1-1.2-2.1-2.5-3.2-3.9-.4-.5-.8-1.1-1.2-1.6-.8-1.1-1.5-2.2-2.2-3.3-.3-.5-.7-1.1-1-1.6-1-1.7-2.1-3.5-3-5.4-17.5-34.5-18.9-64.7-18.9-64.7,0,0-2.2,2.3-5.1,7.2-5.5,9.3-13.3,27.8-13.3,57.7,0,10.5,1,22.5,3.4,35.9,0,0-27.7-51.7-6.5-107,1.3-3.1,2.6-6,3.8-8.8,12.8-27.9,25.6-43,33.1-50.3,3.7-3.6,6.1-5.3,6.6-5.6,0,0-.2.4-.3.8-.9,3.2-3,14.9-2.9,32.3.1,12.4,1.4,27.7,5,44.9,2.2,10.3,5.3,21.3,9.4,32.7,0,0,.5,1.1,1.2,2.6,1.1,2.3,2.7,5.5,2.7,5.5.7,1.3,1.6,2.6,2.6,4.1,4.5,6.5,11.8,14.7,23.1,22.1,6.3,4.1,13.9,8,23,11.1,44.9,15.7,41.5,23.5,44.6,36,1.4,5.4,3.4,12,7,17.9,2,3.4,4.5,6.5,7.6,9,1.5,1.3,3.2,2.4,5.1,3.3,2.8,1.4,5.9,2.4,9.6,2.8,5.3.7,10.7,1.1,15.8,1.4,1.7,0,3.3.2,4.9.2,6.4.3,11.9.3,15.3.1,2.6-.1,4.6-.2,6.6.1,3.4.6,6.9,2.6,13.4,8.5,0,0,8.2,7,26.8-3.2,9.3-5.1,15.9-9.5,20.1-12.7.5-.4,1-.8,1.5-1.1,2.3-1.8,3.7-3,4.3-3.6l.4-.3s.7-.4,1.5-1.8c1.3-2.2,3.1-6.9,2.8-16.3,0-3.5-.4-7.7-1.2-12.7-.4-2.9-.6-6.1-.5-9.6.1-8.1,1.5-17.6,3.6-27.6,1.5-7.1,3.4-14.5,5.4-21.9.8-2.9,1.7-5.8,2.6-8.7,6.6-21.6,14.3-41.3,18.3-50.2,8.5-18.9,11.9-42.5,11.9-42.5,0,0,.9,2.4,1.9,6.2,1.1,4.3,2.3,10.3,2.2,16.4,0,.8,0,1.5,0,2.3,0,0,8.9-3.6,15.7-11.3.8-.9,1.5-1.8,2.2-2.7,3.4-4.8,5.9-11,5.3-18.5,0-1.5-.3-3.1-.7-4.7-1.4-6.5-8.8-21.3-12.4-35.6-1.3-5.2-1.7-11-1.7-15.3,0-1.1,0-2.1.2-3.1.7-6,.8-18.9-1.4-33.9-1.4-9-3.5-18.8-6.7-28.3-6.9-20.9-18.7-40.5-37.7-47.9-15.8-6.2-38-8.9-59.4-7.7-6.6.4-13.2,1.1-19.5,2.3-20.9,3.8-38.4,12-44.5,25.1-1.8,3.9-2.7,8.3-2.2,13.1,3.7,41.3,92.3,39.3,92.3,39.3l42.4-.7h.6c1.3,0,3.7,0,5,1.2l.7.7.3.9h0c0,.1,0,.2,0,.2.2,2.5-14.9,11.8-38.1,20.4-13.9,5.2-30.8,10-49.1,13-15.2,2.5-33.6,3.9-52.3,2.8-1.9-.1-3.7-.3-5.6-.4-3.7-.3-7.5-.8-11.2-1.3-1.9-.3-3.7-.6-5.6-1-3.7-.7-7.3-1.5-10.9-2.5-28.8-7.7-53.9-24.5-63.7-56.8-2.4-8.1-3.6-15.9-3.7-23.4-.4-34,20.9-62.1,46.3-79.9,14.1-9.9,29.4-16.5,42.9-19.2,20.6-4,41.3-6.2,62.6-5.5,19.5,1.8,31.8,5.6,43.1,9.1,12.1,3.7,45,18.3,48.6,19.9,14.4,6.5,29.3,14.6,44.9,24.5,16.9,10.8,29.6,19.9,39.9,27.6,1.6,1.2,3.1,2.3,4.5,3.4,2.8,2.1,5.4,4.2,7.9,6.1,6,4.6,11.1,8.6,16.1,12,7.5,5.1,14.7,9.1,23.3,11.8,8.7,2.7,18.6,4.1,31.6,4.7h.2s1.3,0,3.3,0c2,0,4.8,0,7.6.2,1.2,0,2.4,0,3.6.1-1.5.9-3.2,1.9-5.3,2.9-4.2,2.2-8.8,4.9-14.3,7.6-1.6.8-3.2,1.5-5,2.3-13.9,6.1-32.5,12.7-61.6,12.8-14,0-30.5-1.6-49.9-5.6h0s0,0,0,0c-1.1.5-3.8,3-4.4,3.5,0,0,3.5,18.6,1.8,53.2-.3,5.4,21,43.6,17.4,63.7-1,4.6-3.2,9-6.1,13.2-12.5,18-38,31-38,31,0,0-8.4,22.8-15.7,46-2,6.4-3.9,12.9-5.6,18.9-2.9,10.8-4.9,20.2-4.8,25.3.2,6.8,1.5,15.9,2.4,25.3M996,866.2c-12.9,3.3-14.8,14.9-22,16.8-5.9,1.6-7.9-4.4-3.1-12.3,4.9-7.9,12.8-19.5,32.7-22.4,20-2.9,25,13.8,33.3,20.8,2.1,1.7,4,3.1,5.8,4.3,3.5,2.3,6.3,3.5,7.8,4.3.8.4,1.2.7,1.3,1.1l-4.4,8.2s-4.7-2.6-10.4-4.5c-.6-.2-1.1-.4-1.7-.6-1.2-.4-2.3-.7-3.5-.9-1.7-.4-3.5-.6-5.1-.5-3.8,0-4.4,2.3-6.1,4.2-1.1,1.2-2.5,2.2-5.4,2.7-7.2,1.2-9.7-.6-11.4-3.5-1.7-2.9.3-11.4.3-11.4,1.3-7.4-8.3-6.1-8.3-6.1M994.3,1501.8c-110.1-54.7-202.4-124.4-275.5-207.8,8.4-6.6,24.7-20.4,35.1-37.3,8.8-14.2,7.6-25.9,8.1-25.5-69.7-48-68.1-218.9-68.1-218.9l27,107.1c23.7,96.5,68.9,106.7,75.7,99.1,14.5-16.2,37.6-90.7,39-88.9.4,17.6-21.1,83.6-21,83.6-2.2,6.7-4.5,13.1-6.7,19-.7,2-1.5,3.9-2.2,5.8-2.9,7.4-5.6,13.9-8.2,18.9-5.4,10.7-8.6,21.4-9.4,31.6-.7,8.2.1,16.1,2.4,23.6,4,13.1,12.4,24.6,25.4,33.7,32.1,22.4,38.4,24,41.2,26.3,1.7,1.4,2.4,2.8,6,9.4,5.6,10.2,7.4,14.9,13.2,19.4.8.7,4.3,3.1,8.1,4.3,1.9.6,3.8.9,5.6.9,10.3,0,35.1-4.1,35.1-4.1,0,0,9-1.8,15.9-15.5,4.9-9.9,8.6-22.8,8.8-37,.1-4.7-.2-9.6-.8-14.5-.2-1.6-.5-3.2-.8-4.8-3.4-19.2-10.9-35.6-13.7-41.3-.5-1-.8-1.6-1-2v-.2c-.1,0-.1,0-.1,0h0s0,0,0,0c0,0-8.9-.7-29.6,11l-.7.2h-.1c0,0-.3-.2-.3-.2v-.2c0,0-.2-.5-.2-.5v-1.1c0,0,.1-.3.1-.3.2-.8.4-1.8.8-3v-.2c.2-.5.4-1,.6-1.5v-.4c.3-.5.5-1,.7-1.5l.2-.4c.2-.5.4-1,.6-1.6v-.3c.6-1.3,1.1-2.5,1.6-3.6l.2-.4.5-1.1.3-.7.2-.6c.7-1.5,1.1-2.5,1.1-2.5,0,0,.6-1.9,3-4.8,3.2-3.8,9.6-9.3,22.2-15,23.6-10.6,44.6-16.7,60.9-22.2,4.7-1.6,8.9-3.2,12.8-4.8,13.5-5.7,22-12,23.4-23.2.2-1.4-.2-3-1.2-4.8-.3-.6-.7-1.2-1.2-1.9,17.7-5.2,59.3-18.9,91.4-47.1,0,0,3,2.4,1,7.8-.2.6-.5,1.2-.9,1.8-4.4,8-20.4,23.2-42.9,36.1-5.6,3.2-11.6,6.3-18,9.1,0,0,16.1,48.5-6.4,81.4-4.2,6.2-7.8,11.4-10.8,15.9-12.2,17.9-16.1,24-21.1,30.5-.4.5-.8,1.1-1.3,1.6-1.3,1.7-3,4.1-4.9,7-8.3,12.7-20.5,35.3-20.5,49.4,0,0,16,3.1,30.1,3.9,2,.1,4,.2,5.9.2,16.5,0,30.9-.4,41.6-2.5,8.4-1.7,14.6-4.4,17.9-8.8,0,0,3.2-50.5,15.2-60,10.5-8.3,14.2-14.2,14.6-21.6,0-1.1,0-2.2,0-3.3-.6-9.2-3.8-16.1,13.6-30.6,17.4-14.5,25.3-41,66.3-63.8,0,0,15.9-5.5,12.7-29.5,8.3,1.7,14.9-2,19-5.5-43.8-107-10.8-156.5-5.7-163.2h0c-24.2,111.4,43.4,201.9,75.9,245.4-21.3,27.7-44.5,54.1-69.6,79-34.6,34.4-72.8,66.2-114.5,95.2-38,26.4-78.8,50.6-122.5,72.3l-.7.2-.7-.2Z"/>
  <path class="st0" d="M1805.5,1111.2v403.8h66.3v-146.5h92.9c27.7,0,52.1-5.3,73.3-15.9,21.1-10.6,37.5-25.6,49-45,11.5-19.4,17.3-42,17.3-67.8s-5.8-48.4-17.3-67.8c-11.5-19.4-27.9-34.4-49-45-21.1-10.6-45.6-15.9-73.3-15.9h-159.2ZM1871.8,1168.9h87.7c23.8,0,42.7,6.3,56.5,19,13.8,12.7,20.8,30,20.8,51.9s-7,38.7-21.1,51.6c-14,12.9-33,19.3-56.8,19.3h-87.1v-141.9ZM2292,1219.6c-22.7,0-40.8,3.9-54.2,11.8-13.5,7.9-24.4,18.7-32.9,32.6l-6.9-44.4h-55.4v295.3h62.3v-148.2c0-25.8,5.8-47,17.3-63.7,11.5-16.7,30.2-25.1,56-25.1h27.7v-58.3h-13.9ZM2475.7,1518.4c29.6,0,55.8-6.2,78.7-18.8,22.9-12.5,40.6-30.2,53.1-53.1,12.5-22.9,18.7-49.3,18.7-79.3s-6.2-55.8-18.7-78.7c-12.5-22.9-30.2-40.7-53.1-53.4-22.9-12.7-49.1-19-78.7-19s-55.9,6.3-78.7,19c-22.9,12.7-40.6,30.5-53.1,53.4-12.5,22.9-18.7,49.1-18.7,78.7s6.2,56.5,18.7,79.3c12.5,22.9,30.2,40.6,53.1,53.1,22.9,12.5,49.1,18.8,78.7,18.8M2475.7,1465.3c-26.2,0-47.1-9.1-62.9-27.4-15.8-18.3-23.6-41.8-23.6-70.7s7.9-52.4,23.6-70.6c15.8-18.3,36.7-27.4,62.9-27.4s47.2,9.1,63.2,27.4c16,18.3,23.9,41.8,23.9,70.6s-8,52.4-23.9,70.7c-16,18.3-37,27.4-63.2,27.4M3082,1515v-58.8h-173.6v-344.9h-66.3v403.8h240ZM3105.8,1367.9c0,30,6.2,56.3,18.8,79,12.5,22.7,30.2,40.3,53.1,52.8,22.9,12.5,49.7,18.8,80.5,18.8s64.9-9.6,88.5-28.8c23.6-19.2,38.2-43.8,43.6-73.8h-62.3c-4.2,16.5-12.9,29.3-26,38.4-13.1,9-29.2,13.6-48.5,13.6s-43.6-7.5-58.3-22.5c-14.6-15-22.7-35.4-24.2-61.1v-3.5h222.7c1.2-8.1,1.7-16,1.7-23.6-.4-28.5-6.8-53.3-19.3-74.4-12.5-21.1-29.6-37.5-51.3-49-21.7-11.5-46.8-17.3-75.3-17.3s-53,6.3-74.7,18.7c-21.7,12.5-38.7,30.2-50.8,53.1-12.1,22.9-18.2,49.5-18.2,79.9M3173.3,1335c2.3-20.8,10.9-37.4,25.7-49.9,14.8-12.5,32.4-18.7,52.8-18.7s40.1,6.1,54.5,18.2c14.4,12.1,23,28.9,25.7,50.5h-158.6ZM3712.3,1460.7c-13.1,0-19.6-6.9-19.6-20.8v-116.5c0-34.6-10.8-61.1-32.3-79.6-21.5-18.5-52.1-27.7-91.7-27.7s-67.5,8.2-90.6,24.5c-23.1,16.4-36.2,39.3-39.2,68.9h61.1c2.3-13.1,9.3-23.5,21.1-31.4,11.7-7.9,26.6-11.8,44.7-11.8s36.3,4.7,47.9,14.1c11.5,9.4,17.3,22.4,17.3,38.9v17.9h-74.4c-41.1,0-72.5,8.2-94,24.5-21.5,16.4-32.3,39.7-32.3,70.1s10,48.1,30,63.4c20,15.4,46.5,23.1,79.6,23.1s75.2-16.9,97.5-50.8c0,15.4,4.2,27.1,12.7,35.2,8.4,8.1,22.3,12.1,41.5,12.1h32.9v-54.2h-12.1ZM3631,1393.8c-.4,23.1-7.8,41.5-22.2,55.4-14.4,13.9-34.5,20.8-60.3,20.8s-30.3-3.8-40.1-11.5c-9.8-7.7-14.7-17.9-14.7-30.6s5.2-25.7,15.6-33.2c10.4-7.5,25.2-11.2,44.4-11.2h77.3v10.4ZM3987.6,1219.6l-6.9,46.1c-10-15.4-23.1-27.5-39.2-36.3-16.1-8.8-35.4-13.3-57.7-13.3s-50.4,6.3-71.5,18.7c-21.1,12.5-37.8,30.1-49.9,52.8-12.1,22.7-18.2,48.8-18.2,78.5s5.9,57.4,17.9,79.9c11.9,22.5,28.5,39.8,49.6,51.9,21.1,12.1,45.2,18.2,72.1,18.2,42.7,0,74.8-16.2,96.3-48.5v32.9c0,55-28.3,82.5-84.8,82.5s-39.8-4.5-53.6-13.6c-13.8-9-22.7-21.8-26.5-38.4h-63.5c2.7,32.7,16.5,58,41.5,75.9,25,17.9,57.5,26.8,97.5,26.8s89.6-11.4,114.2-34.3c24.6-22.9,36.9-55.1,36.9-96.6v-283.2h-54.2ZM3894.1,1463.6c-25.8,0-46.5-9-62.3-27.1-15.8-18.1-23.6-41.5-23.6-70.4s7.9-52.3,23.6-70.4c15.8-18.1,36.5-27.1,62.3-27.1s46.5,9.1,62.3,27.4c15.8,18.3,23.7,42,23.7,71.2s-7.9,51.6-23.7,69.5c-15.8,17.9-36.5,26.8-62.3,26.8M4308.9,1219.6v146.5c0,30.4-6.7,54.3-20.2,71.8-13.5,17.5-32.1,26.3-55.9,26.3s-39.8-7.5-51.3-22.5c-11.5-15-17.3-36.9-17.3-65.8v-156.3h-62.3v162.7c0,47.7,10.8,82.3,32.3,103.8,21.5,21.5,49.6,32.3,84.2,32.3s68.8-13.6,91.1-41l6.9,37.5h54.8v-295.3h-62.3ZM4421.4,1367.9c0,30,6.2,56.3,18.8,79,12.5,22.7,30.2,40.3,53.1,52.8,22.9,12.5,49.7,18.8,80.5,18.8s64.9-9.6,88.5-28.8c23.7-19.2,38.2-43.8,43.6-73.8h-62.3c-4.2,16.5-12.9,29.3-26,38.4-13.1,9-29.2,13.6-48.4,13.6s-43.7-7.5-58.3-22.5c-14.6-15-22.7-35.4-24.2-61.1v-3.5h222.7c1.2-8.1,1.7-16,1.7-23.6-.4-28.5-6.8-53.3-19.3-74.4-12.5-21.1-29.6-37.5-51.3-49-21.7-11.5-46.8-17.3-75.3-17.3s-53,6.3-74.7,18.7c-21.7,12.5-38.7,30.2-50.8,53.1-12.1,22.9-18.2,49.5-18.2,79.9M4488.8,1335c2.3-20.8,10.9-37.4,25.7-49.9,14.8-12.5,32.4-18.7,52.8-18.7s40.1,6.1,54.5,18.2c14.4,12.1,23,28.9,25.7,50.5h-158.6Z"/>
  <path class="st0" d="M1783.5,754.4c-.4,50.8,12.1,89.5,37.5,116.2,25.4,26.7,61.9,40.1,109.6,40.1s85.3-13.1,110.5-39.2c25.2-26.2,37.8-65.8,37.8-118.8v-249.2h-66.3v250.3c0,33.8-6.8,58.8-20.5,74.7-13.7,16-34.1,23.9-61.4,23.9s-46.6-8.7-60.3-26c-13.7-17.3-20.5-41.3-20.5-72.1h-66.3ZM2346.9,611.9v146.5c0,30.4-6.7,54.3-20.2,71.8-13.5,17.5-32.1,26.3-55.9,26.3s-39.8-7.5-51.3-22.5c-11.5-15-17.3-36.9-17.3-65.8v-156.3h-62.3v162.7c0,47.7,10.8,82.3,32.3,103.8,21.5,21.6,49.6,32.3,84.2,32.3s68.8-13.6,91.1-41l6.9,37.5h54.8v-295.3h-62.3ZM2630.5,608.4c-40.4,0-72.5,15.8-96.3,47.3l-7.5-43.8h-54.2v410.7h62.3v-156.9c9.6,13.8,22.5,24.8,38.6,32.9,16.1,8.1,35.2,12.1,57.1,12.1s51-6.2,72.1-18.7c21.2-12.5,37.7-30.2,49.6-53.1,11.9-22.9,17.9-49.3,17.9-79.3s-6-57.6-17.9-80.5c-11.9-22.9-28.5-40.4-49.6-52.5-21.1-12.1-45.2-18.2-72.1-18.2M2620.1,858.2c-25.8,0-46.5-9.2-62.3-27.7-15.8-18.5-23.6-42.5-23.6-72.1s7.9-52.2,23.6-70.1c15.8-17.9,36.5-26.8,62.3-26.8s46.6,9,62.6,27.1c16,18.1,23.9,41.7,23.9,70.9s-8,52.5-23.9,71c-16,18.5-36.8,27.7-62.6,27.7M2850.7,493.6c-10.8,0-19.8,3.6-27.1,10.7-7.3,7.1-11,16.1-11,26.8s3.7,19.7,11,26.8c7.3,7.1,16.3,10.7,27.1,10.7s19.8-3.5,27.1-10.7c7.3-7.1,11-16.1,11-26.8s-3.7-19.7-11-26.8c-7.3-7.1-16.4-10.7-27.1-10.7M2819.5,907.2h62.3v-295.3h-62.3v295.3ZM2945.7,907.2h62.3v-403.8h-62.3v403.8ZM3059.1,760.1c0,30,6.2,56.3,18.7,79,12.5,22.7,30.2,40.3,53.1,52.8,22.9,12.5,49.7,18.7,80.5,18.7s64.9-9.6,88.5-28.8c23.6-19.2,38.2-43.8,43.6-73.8h-62.3c-4.2,16.5-12.9,29.3-26,38.4-13.1,9-29.2,13.6-48.5,13.6s-43.6-7.5-58.3-22.5c-14.6-15-22.7-35.4-24.2-61.1v-3.5h222.7c1.1-8.1,1.7-15.9,1.7-23.6-.4-28.5-6.8-53.3-19.3-74.4-12.5-21.1-29.6-37.5-51.3-49-21.7-11.5-46.8-17.3-75.3-17.3s-53,6.3-74.7,18.8c-21.7,12.5-38.7,30.2-50.8,53.1-12.1,22.9-18.2,49.5-18.2,79.9M3126.6,727.3c2.3-20.8,10.9-37.4,25.7-49.9,14.8-12.5,32.4-18.7,52.8-18.7s40.1,6.1,54.5,18.2c14.4,12.1,23,28.9,25.7,50.5h-158.6ZM3548.3,611.9c-22.7,0-40.8,4-54.2,11.8-13.5,7.9-24.4,18.7-32.9,32.6l-6.9-44.4h-55.4v295.3h62.3v-148.2c0-25.7,5.8-47,17.3-63.7,11.5-16.7,30.2-25.1,56-25.1h27.7v-58.3h-13.8Z"/>
</svg>