<?xml version="1.0" encoding="UTF-8"?>
<svg id="Calque_2" data-name="Calque 2" xmlns="http://www.w3.org/2000/svg" xmlns:xlink="http://www.w3.org/1999/xlink" viewBox="0 0 2310.32 3242.46">
  <defs>
    <style>
      .cls-1 {
        fill: #e3e3e2;
      }

      .cls-2 {
        fill: url(#Dégradé_sans_nom_2);
      }

      .cls-3 {
        fill: #db052c;
      }

      .cls-4 {
        fill: #00a445;
      }

      .cls-5 {
        fill: #fff;
      }

      .cls-6 {
        fill: url(#Dégradé_sans_nom);
      }

      .cls-7 {
        fill: #1a1659;
      }
    </style>
    <linearGradient id="Dégradé_sans_nom" data-name="Dégradé sans nom" x1="-169.16" y1="3947.43" x2="-159.53" y2="3947.43" gradientTransform="translate(12056.11 263819.36) scale(66.33 -66.33)" gradientUnits="userSpaceOnUse">
      <stop offset="0" stop-color="#31ecff"/>
      <stop offset=".57" stop-color="#0373ff"/>
      <stop offset=".81" stop-color="#0373ff"/>
      <stop offset="1" stop-color="#0373ff"/>
    </linearGradient>
    <linearGradient id="Dégradé_sans_nom_2" data-name="Dégradé sans nom 2" x1="-189.53" y1="3967.83" x2="-179.89" y2="3967.83" gradientTransform="translate(-654485.66 -203499.37) rotate(110) scale(172.96 -172.96)" gradientUnits="userSpaceOnUse">
      <stop offset="0" stop-color="#31ecff"/>
      <stop offset=".56" stop-color="#0373ff"/>
      <stop offset=".8" stop-color="#0373ff"/>
      <stop offset="1" stop-color="#0373ff"/>
    </linearGradient>
  </defs>
  <g id="Calque_1-2" data-name="Calque 1">
    <g>
      <path class="cls-5" d="M2310.32,3242.46H0V0h2310.32v3242.46Z"/>
      <g>
        <g>
          <path class="cls-7" d="M324.8,2625.64c-2-1.98-3-5.47-.51-8.47l37.83-43.3c2-2.49,4.98-2.49,7.47-.49,22.4,17.91,52.76,34.83,88.59,34.83s55.25-16.41,55.25-40.32c0-19.9-11.94-32.34-52.25-37.81l-17.93-2.51c-68.68-9.45-107-41.79-107-101.51s46.78-103.54,119.95-103.54c44.79,0,86.61,13.44,114.97,35.34,2.98,2,3.49,4,1,7.47l-30.36,45.31c-2,2.47-4.49,2.98-6.98,1.47-25.87-16.92-50.76-25.87-78.63-25.87-29.87,0-45.29,15.43-45.29,36.83,0,19.4,13.94,31.85,52.75,37.32l17.93,2.51c69.68,9.45,106.52,41.3,106.52,102.53s-45.29,106.49-132.9,106.49c-52.76,0-104.03-20.9-130.4-46.28"/>
          <path class="cls-7" d="M627.41,2332.98c0-2.98,2-4.96,4.98-4.96h216.99c3,0,4.99,1.98,4.99,4.96v53.25c0,3-2,4.98-4.99,4.98h-145.82c-2,0-2.98,1-2.98,3v67.19c0,2,.98,2.98,2.98,2.98h121.44c2.98,0,4.98,2,4.98,4.98v52.76c0,2.98-2,4.98-4.98,4.98h-121.44c-2,0-2.98,1-2.98,2.98v70.19c0,1.98.98,2.98,2.98,2.98h145.82c3,0,4.99,2,4.99,4.96v53.27c0,2.98-2,4.98-4.99,4.98h-216.99c-2.98,0-4.98-2-4.98-4.98v-328.49Z"/>
          <path class="cls-7" d="M1080.32,2433.02c0-25.38-17.91-41.81-45.79-41.81h-59.72c-2,0-3,1-3,3v78.14c0,1.98,1,2.98,3,2.98h59.72c27.87,0,45.79-16.42,45.79-42.31M1085.79,2666.44c-4.47,0-5.98-1.47-7.47-4.98l-58.23-123.91h-45.28c-2,0-3,.98-3,2.98v120.93c0,3-2,4.98-4.98,4.98h-63.21c-2.98,0-4.98-1.98-4.98-4.98v-328.47c0-2.98,2-4.98,4.98-4.98h134.88c69.17,0,114.96,43.3,114.96,105.02,0,43.31-22.89,77.65-60.21,94.08l66.7,133.38c1.47,2.98,0,5.96-3.49,5.96h-70.68Z"/>
          <path class="cls-7" d="M1199.27,2332.98c0-2.98,2-4.96,4.98-4.96h63.21c3,0,4.98,1.98,4.98,4.96v328.49c0,2.98-1.98,4.98-4.98,4.98h-63.21c-2.98,0-4.98-2-4.98-4.98v-328.49Z"/>
          <path class="cls-7" d="M1327.18,2332.98c0-2.98,1.98-4.96,4.98-4.96h216.99c3,0,4.99,1.98,4.99,4.96v53.25c0,3-2,4.98-4.99,4.98h-145.82c-1.98,0-2.98,1-2.98,3v67.19c0,2,1,2.98,2.98,2.98h121.44c2.98,0,4.98,2,4.98,4.98v52.76c0,2.98-2,4.98-4.98,4.98h-121.44c-1.98,0-2.98,1-2.98,2.98v70.19c0,1.98,1,2.98,2.98,2.98h145.82c3,0,4.99,2,4.99,4.96v53.27c0,2.98-2,4.98-4.99,4.98h-216.99c-3,0-4.98-2-4.98-4.98v-328.49Z"/>
          <path class="cls-7" d="M1873.17,2540.03l-38.32-118.46h-1.49l-38.33,118.46h78.14ZM1797.02,2332.98c1-2.96,2.98-4.96,6.47-4.96h62.72c3.49,0,5.47,2,6.45,4.96l114.46,328.49c1.02,3,0,4.98-3.47,4.98h-64.7c-3.49,0-5.47-1.49-6.45-4.98l-19.42-59.21h-118.46l-18.91,59.21c-1,3.49-2.98,4.98-6.47,4.98h-65.21c-3.49,0-4.47-1.98-3.49-4.98l116.48-328.49Z"/>
          <path class="cls-4" d="M330.17,2790.73h549.98v124.27H330.17v-124.27Z"/>
          <path class="cls-1" d="M880.18,2790.73h549.98v124.27h-549.98v-124.27Z"/>
          <path class="cls-3" d="M1430.16,2790.73h549.98v124.27h-549.98v-124.27Z"/>
          <path class="cls-7" d="M835.6,1722.49l319.55-843.84,137.98,364.37h-174.2l-118.8,313.75h411.83l62.75,165.72h-639.1Z"/>
          <path class="cls-7" d="M1155.15,2245.28l824.98-522.79h-505.43l-319.55,522.79ZM1155.15,2245.28l-824.98-522.79h505.43l319.55,522.79Z"/>
        </g>
        <path class="cls-6" d="M835.52,1722.49l319.63,522.8,319.55-522.8h-639.18Z"/>
        <path class="cls-2" d="M927.29,332L330.17,1722.51h505.43l319.55-843.86,137.98,364.37h-174.18l-118.82,313.77h411.82l62.75,165.72h505.43L1383.01,332h-455.72Z"/>
      </g>
    </g>
  </g>
</svg>